<svg width="160" height="89" viewBox="0 0 160 89" fill="none" xmlns="http://www.w3.org/2000/svg">
<g clip-path="url(#clip0_2475_21758)">
<path d="M75.0351 49.8899L75.2151 38.5449L90.1151 38.5149C91.7051 38.5149 93.1251 39.5099 93.6601 41.0099L96.0501 51.8849L98.9401 50.4299L95.5901 40.5999C94.6801 38.1399 92.3451 36.4999 89.7201 36.4799L73.4801 36.3599L72.8301 47.6549C73.3151 48.5249 73.7351 49.2999 74.0601 49.9199L75.0301 49.8999L75.0351 49.8899Z" fill="black"/>
<path d="M88.17 71.9949C91.52 65.4399 101.515 64.2649 101.515 64.2649V57.9849L100.815 55.9299L89.56 60.4399C85.85 63.0699 82.395 66.9049 79.73 69.9899C79.63 71.4799 79.43 72.9549 79.105 74.3699L79.085 74.4499V76.6949C82.46 76.5399 86.36 75.5249 88.165 71.9949H88.17Z" fill="black"/>
<path d="M79.385 56.29C81.26 56.69 83.145 56.905 85.01 56.905C85.4 56.905 85.775 56.895 86.135 56.88L90.635 54.615H79.81C79.78 55.205 79.635 55.77 79.39 56.29H79.385Z" fill="black"/>
<path d="M104.43 48.08H106.68C107.35 46.59 107.705 44.955 107.705 43.285V21.345C107.705 11.615 115.62 3.69996 125.35 3.69996V4.45996C134.66 4.45996 142.235 12.035 142.235 21.345V40.685H140.01C137.11 40.685 134.76 43.035 134.76 45.935V86.17H154.22V45.935C154.22 43.035 151.87 40.685 148.97 40.685H146.235V21.345C146.235 9.82996 136.865 0.459961 125.35 0.459961V1.21996C114.255 1.21996 105.225 10.245 105.225 21.345V43.285C105.225 44.425 105.005 45.535 104.605 46.575C104.4 47.115 104.145 47.635 103.84 48.13C104.025 48.095 104.215 48.075 104.41 48.075C104.415 48.075 104.425 48.075 104.43 48.075V48.08ZM139.305 51.715H141.145V53.555H139.305V51.715ZM139.305 54.18H141.145V56.02H139.305V54.18ZM139.305 56.645H141.145V58.485H139.305V56.645ZM144.25 51.715H149.71C150.055 51.715 150.335 51.995 150.335 52.34C150.335 52.685 150.055 52.965 149.71 52.965H144.25C143.905 52.965 143.625 52.685 143.625 52.34C143.625 51.995 143.905 51.715 144.25 51.715ZM143.625 55.925H150.34V58.485H143.625V55.925Z" fill="black"/>
<path d="M90.4101 57.575C90.4101 57.575 90.4201 57.605 90.4251 57.615C90.4351 57.63 90.4401 57.65 90.4551 57.665C90.5151 57.755 90.6101 57.8 90.7101 57.8C90.7701 57.8 90.8301 57.785 90.8851 57.745L91.7101 57.185L92.3801 57.55L99.6851 54.585L98.7101 52.365L90.3101 56.42L91.2801 56.95L90.6101 57.18C90.4451 57.235 90.3601 57.41 90.4151 57.57L90.4101 57.575Z" fill="black"/>
<path d="M79.9601 61.8699L79.8451 61.8999C79.6801 61.9449 79.5801 62.1099 79.6251 62.2799C79.6601 62.4199 79.7851 62.5099 79.9251 62.5099C79.9501 62.5099 79.9751 62.5099 80.0051 62.4999L80.1201 62.4699C80.2851 62.4299 80.3851 62.2599 80.3451 62.0949C80.3051 61.9299 80.1351 61.8299 79.9701 61.8699H79.9601Z" fill="black"/>
<path d="M83.71 61.3448C83.745 61.3448 83.7801 61.3398 83.8151 61.3248L83.93 61.2848C84.09 61.2248 84.175 61.0498 84.115 60.8898C84.055 60.7298 83.8801 60.6448 83.7201 60.7048L83.6051 60.7448C83.4451 60.7998 83.3601 60.9798 83.4151 61.1398C83.4601 61.2648 83.5801 61.3448 83.7051 61.3448H83.71Z" fill="black"/>
<path d="M82.555 61.7601L82.67 61.7251C82.835 61.6751 82.92 61.5001 82.87 61.3351C82.82 61.1701 82.645 61.0801 82.48 61.1351L82.365 61.1751C82.2 61.2301 82.115 61.4051 82.165 61.5651C82.21 61.6951 82.33 61.7801 82.46 61.7801C82.49 61.7801 82.525 61.7751 82.555 61.7651V61.7601Z" fill="black"/>
<path d="M85.345 60.4099C85.28 60.2499 85.1 60.1749 84.94 60.2399L84.83 60.2849C84.67 60.3499 84.595 60.5299 84.655 60.6849C84.705 60.8049 84.82 60.8799 84.945 60.8799C84.985 60.8799 85.02 60.8749 85.06 60.8599L85.175 60.8149C85.335 60.7499 85.41 60.5699 85.345 60.4099Z" fill="black"/>
<path d="M86.3751 60.2849C86.5351 60.2199 86.6101 60.0399 86.5451 59.8799C86.4801 59.7199 86.3001 59.6449 86.1401 59.7099L86.0301 59.7549C85.8701 59.8199 85.7951 59.9999 85.8551 60.1549C85.9051 60.2749 86.0201 60.3499 86.1451 60.3499C86.1851 60.3499 86.2201 60.3449 86.2601 60.3299L86.3751 60.2849Z" fill="black"/>
<path d="M81.6051 61.7299C81.5551 61.5649 81.3851 61.4699 81.2201 61.5199L81.1051 61.5549C80.9401 61.6049 80.8451 61.7749 80.8951 61.9399C80.9351 62.0749 81.0601 62.1649 81.1901 62.1649C81.2201 62.1649 81.2501 62.1649 81.2751 62.1549L81.3901 62.1199C81.5551 62.0699 81.6501 61.8999 81.6001 61.7349L81.6051 61.7299Z" fill="black"/>
<path d="M78.945 57.845C78.915 58.015 79.025 58.175 79.19 58.205L79.31 58.225C79.31 58.225 79.35 58.23 79.365 58.23C79.51 58.23 79.64 58.125 79.67 57.975C79.7 57.805 79.59 57.645 79.42 57.615L79.305 57.595C79.14 57.565 78.975 57.675 78.945 57.84V57.845Z" fill="black"/>
<path d="M83.0951 58.6799H83.2151C83.2151 58.6799 83.2251 58.6849 83.2301 58.6849C83.3951 58.6849 83.5301 58.5549 83.5401 58.3899C83.5501 58.2199 83.4151 58.0749 83.2451 58.0649H83.1251C82.9601 58.0499 82.8101 58.1799 82.8001 58.3549C82.7901 58.5249 82.9251 58.6699 83.0951 58.6799Z" fill="black"/>
<path d="M80.605 58.4399C80.605 58.4399 80.635 58.4399 80.645 58.4399C80.795 58.4399 80.93 58.3299 80.95 58.1749C80.975 58.0049 80.855 57.8499 80.685 57.8249L80.57 57.8099C80.405 57.7849 80.245 57.9049 80.22 58.0699C80.195 58.2399 80.315 58.3949 80.485 58.4199L80.605 58.4349V58.4399Z" fill="black"/>
<path d="M84.51 58.715H84.525C84.695 58.715 84.825 58.575 84.825 58.405C84.825 58.235 84.68 58.095 84.505 58.095H84.405C84.31 58.095 84.23 58.14 84.17 58.205C84.125 58.26 84.095 58.325 84.095 58.4C84.095 58.57 84.23 58.71 84.4 58.71H84.505L84.51 58.715Z" fill="black"/>
<path d="M81.905 58.595C81.905 58.595 81.9251 58.595 81.9351 58.595C82.0951 58.595 82.2301 58.475 82.2451 58.315C82.2601 58.145 82.1351 57.995 81.9651 57.98L81.85 57.97C81.68 57.955 81.5301 58.08 81.5101 58.25C81.4951 58.42 81.6151 58.57 81.7901 58.59L81.9101 58.6L81.905 58.595Z" fill="black"/>
<path d="M88.335 58.435L88.455 58.415C88.625 58.39 88.74 58.23 88.71 58.06C88.685 57.89 88.52 57.775 88.355 57.8L88.24 57.82C88.07 57.845 87.955 58.005 87.98 58.175C88.005 58.33 88.135 58.44 88.285 58.44C88.3 58.44 88.315 58.44 88.33 58.44L88.335 58.435Z" fill="black"/>
<path d="M88.5501 59.235C88.6001 59.235 88.6501 59.225 88.6951 59.2L88.8001 59.145C88.8351 59.125 88.8651 59.1 88.8901 59.07C88.9251 59.06 88.9601 59.04 88.9951 59.015L89.5601 58.555C89.6051 58.58 89.6551 58.595 89.7051 58.595C89.7551 58.595 89.8101 58.58 89.8601 58.555L89.9651 58.49C90.1101 58.4 90.1601 58.21 90.0701 58.065C90.0401 58.015 89.9951 57.98 89.9501 57.96C89.9701 57.91 89.9801 57.855 89.9751 57.8C89.9501 57.63 89.7851 57.515 89.6201 57.54L89.5051 57.56C89.3351 57.585 89.2201 57.745 89.2451 57.915C89.2451 57.93 89.2551 57.945 89.2601 57.965C89.2601 57.965 89.2601 57.97 89.2651 57.975C89.2751 57.995 89.2801 58.015 89.2951 58.035C89.3251 58.09 89.3651 58.14 89.4201 58.17C89.4001 58.215 89.3901 58.26 89.3951 58.305L88.7151 58.455C88.6251 58.475 88.5551 58.53 88.5151 58.6C88.5151 58.6 88.5151 58.6 88.5101 58.6L88.4051 58.655C88.2551 58.735 88.1951 58.92 88.2751 59.075C88.3301 59.18 88.4401 59.24 88.5501 59.24V59.235Z" fill="black"/>
<path d="M85.8101 58.0651H85.6951C85.5251 58.0801 85.3901 58.2201 85.4001 58.3951C85.4051 58.5601 85.5451 58.6901 85.7101 58.6901C85.7101 58.6901 85.7201 58.6901 85.7251 58.6901H85.8451C86.0151 58.6751 86.1451 58.5301 86.1401 58.3601C86.1301 58.1901 85.9851 58.0601 85.8151 58.0651H85.8101Z" fill="black"/>
<path d="M87.0301 58.5949L87.1501 58.5849C87.3201 58.5699 87.4451 58.4149 87.4251 58.2449C87.4051 58.0749 87.2501 57.9499 87.0851 57.9699L86.9701 57.9799C86.8001 57.9949 86.6751 58.1449 86.6901 58.3149C86.7051 58.4749 86.8401 58.5949 87.0001 58.5949C87.0101 58.5949 87.0201 58.5949 87.0301 58.5949Z" fill="black"/>
<path d="M84.74 59.9C84.74 59.9 84.78 59.9 84.8 59.895L84.92 59.87C85.025 59.85 85.105 59.775 85.145 59.68C85.165 59.625 85.18 59.57 85.165 59.505C85.135 59.36 85.01 59.265 84.87 59.26C84.85 59.26 84.825 59.26 84.805 59.26L84.68 59.285C84.51 59.32 84.405 59.48 84.435 59.65C84.465 59.795 84.595 59.9 84.74 59.9Z" fill="black"/>
<path d="M80.695 60.6299C80.695 60.6299 80.725 60.6299 80.745 60.6299L80.87 60.6099C81.04 60.5849 81.155 60.4249 81.13 60.2549C81.105 60.0849 80.95 59.9699 80.775 59.9949L80.65 60.0149C80.48 60.0399 80.365 60.1999 80.39 60.3699C80.415 60.5249 80.545 60.6299 80.695 60.6299Z" fill="black"/>
<path d="M79.32 60.8249C79.32 60.8249 79.35 60.8249 79.37 60.8249L79.495 60.8049C79.665 60.7799 79.78 60.6199 79.755 60.4499C79.73 60.2799 79.575 60.1649 79.4 60.1899L79.275 60.2099C79.105 60.2349 78.99 60.3949 79.015 60.5649C79.04 60.7199 79.17 60.8249 79.32 60.8249Z" fill="black"/>
<path d="M81.995 59.7899C81.825 59.8199 81.715 59.9799 81.745 60.1499C81.77 60.2999 81.9 60.4049 82.05 60.4049C82.07 60.4049 82.085 60.4049 82.105 60.4049L82.23 60.3849C82.4 60.3549 82.51 60.1949 82.48 60.0249C82.45 59.8549 82.285 59.7449 82.12 59.7749L82 59.7949L81.995 59.7899Z" fill="black"/>
<path d="M83.45 60.155L83.575 60.13C83.745 60.1 83.855 59.9351 83.82 59.7701C83.79 59.6001 83.62 59.49 83.46 59.525L83.34 59.5501C83.17 59.5801 83.06 59.7451 83.09 59.9101C83.12 60.0601 83.25 60.1651 83.395 60.1651C83.415 60.1651 83.435 60.1651 83.45 60.1601V60.155Z" fill="black"/>
<path d="M85.7801 59.38C85.8101 59.525 85.9401 59.63 86.0851 59.63C86.1051 59.63 86.1251 59.63 86.1451 59.625L86.2701 59.6C86.4351 59.565 86.5451 59.4 86.5101 59.235C86.4751 59.065 86.3101 58.96 86.1451 58.995L86.0251 59.02C85.8601 59.055 85.7501 59.22 85.7851 59.385L85.7801 59.38Z" fill="black"/>
<path d="M82.945 64.37C83.025 64.37 83.105 64.34 83.165 64.28L83.25 64.195C83.37 64.075 83.37 63.88 83.25 63.755C83.13 63.635 82.935 63.635 82.81 63.755L82.725 63.84C82.605 63.96 82.605 64.155 82.725 64.28C82.785 64.34 82.865 64.37 82.945 64.37Z" fill="black"/>
<path d="M83.88 63.45C83.955 63.45 84.035 63.42 84.095 63.365L84.18 63.28C84.3 63.16 84.305 62.965 84.185 62.84C84.065 62.715 83.87 62.715 83.745 62.835L83.66 62.915C83.535 63.035 83.535 63.23 83.65 63.355C83.71 63.42 83.79 63.45 83.875 63.45H83.88Z" fill="black"/>
<path d="M82.0351 65.3198C82.1201 65.3198 82.2001 65.2848 82.2601 65.2248L82.3401 65.1398C82.4551 65.0148 82.4501 64.8198 82.3251 64.6998C82.2001 64.5848 82.0051 64.5898 81.8851 64.7148L81.8051 64.7998C81.6901 64.9248 81.6951 65.1198 81.8201 65.2398C81.8801 65.2948 81.9551 65.3248 82.0301 65.3248L82.0351 65.3198Z" fill="black"/>
<path d="M84.835 62.5449C84.91 62.5449 84.985 62.5149 85.045 62.4599L85.13 62.3799C85.255 62.2649 85.265 62.0699 85.145 61.9399C85.03 61.8149 84.83 61.8049 84.705 61.9249L84.615 62.0099C84.49 62.1249 84.485 62.3249 84.6 62.4499C84.66 62.5149 84.745 62.5449 84.825 62.5449H84.835Z" fill="black"/>
<path d="M85.8151 61.635C85.8951 61.635 85.9801 61.605 86.0451 61.55L86.1051 61.5C86.1701 61.445 86.2001 61.365 86.2051 61.29C86.2051 61.21 86.1851 61.13 86.1251 61.065C86.0901 61.025 86.0501 61.005 86.0051 60.985C85.9001 60.945 85.7751 60.96 85.6901 61.04L85.6001 61.12C85.4751 61.235 85.4801 61.415 85.5951 61.545C85.6551 61.61 85.7351 61.64 85.8201 61.64L85.8151 61.635Z" fill="black"/>
<path d="M86.7901 60.7849C86.8651 60.7849 86.9351 60.7599 86.9951 60.7049L87.0651 60.6399L87.0801 60.6249C87.2101 60.5149 87.2151 60.3249 87.1051 60.1949C86.9901 60.0649 86.7901 60.0599 86.6601 60.1699L86.5801 60.2399C86.4551 60.3549 86.4401 60.5499 86.5551 60.6749C86.6151 60.7449 86.7001 60.7799 86.7851 60.7799L86.7901 60.7849Z" fill="black"/>
<path d="M87.37 59.8299C87.415 59.8299 87.455 59.8199 87.495 59.7999C87.5 59.8049 87.5 59.8149 87.505 59.8199C87.565 59.8899 87.65 59.9249 87.735 59.9249C87.74 59.9249 87.75 59.9249 87.755 59.9249C87.765 59.9249 87.77 59.9299 87.78 59.9299C87.795 59.9299 87.805 59.9199 87.82 59.9149C87.865 59.9049 87.905 59.8849 87.94 59.8499L88.01 59.7849L88.025 59.7699C88.155 59.6599 88.16 59.4699 88.05 59.3399C87.97 59.2499 87.845 59.2199 87.735 59.2499C87.825 59.1799 87.875 59.0699 87.85 58.9499C87.815 58.7849 87.65 58.6749 87.485 58.7099L87.36 58.7349C87.195 58.7699 87.085 58.9349 87.12 59.0999C87.135 59.1599 87.165 59.2149 87.21 59.2549C87.075 59.3349 87.015 59.5049 87.085 59.6499C87.14 59.7599 87.25 59.8249 87.365 59.8249L87.37 59.8299Z" fill="black"/>
<path d="M81.0001 65.6951L80.9601 65.74C80.8451 65.87 80.8701 66.0501 81.0001 66.1651C81.0551 66.2151 81.1251 66.2351 81.1951 66.2351C81.2851 66.2351 81.3801 66.1951 81.4451 66.1251L81.4651 66.1C81.5801 65.97 81.5651 65.7751 81.4351 65.6651C81.3051 65.5501 81.1101 65.5651 81.0001 65.6951Z" fill="black"/>
<path d="M14.125 77.5549V84.0549C14.125 85.1549 15.015 86.0549 16.105 86.0549H21.38C22.47 86.0549 23.36 85.1599 23.36 84.0549V79.3099H18.395C16.765 79.3099 15.26 78.6649 14.125 77.5549Z" fill="black"/>
<path d="M67.135 79.3101V84.0551C67.135 85.1551 68.025 86.0551 69.115 86.0551H74.39C75.48 86.0551 76.37 85.1601 76.37 84.0551V77.55C75.235 78.66 73.725 79.3101 72.095 79.3101H67.135Z" fill="black"/>
<path d="M14.19 56.875C13.025 59.875 12.095 65.11 12.5 70.215C12.6 71.48 12.78 72.735 13.06 73.95C13.06 73.96 13.065 73.975 13.065 73.985C13.63 76.57 15.77 78.495 18.395 78.495H71.915C74.545 78.495 76.685 76.57 77.245 73.985C77.245 73.975 77.245 73.96 77.255 73.95C77.485 72.96 77.64 71.935 77.75 70.905C78.3 65.59 77.34 60.015 76.125 56.88C77.165 56.53 77.915 55.545 77.915 54.38C77.915 52.925 76.745 51.745 75.295 51.745L72.905 51.795C72.905 51.795 66.885 39.845 62.805 37.395C62.21 37.075 56.265 35.77 45.38 35.77H44.945C34.055 35.77 28.115 37.075 27.52 37.395C23.44 39.845 17.42 51.795 17.42 51.795L15.025 51.745C13.58 51.745 12.405 52.925 12.405 54.38C12.405 55.545 13.155 56.53 14.195 56.88L14.19 56.875ZM72.865 62.845V64.755C72.865 65.88 71.955 66.8 70.84 66.8H62.5C61.385 66.8 60.475 65.885 60.475 64.755V62.845C60.475 61.72 61.385 60.8 62.5 60.8H70.84C71.955 60.8 72.865 61.715 72.865 62.845ZM28.07 39.35C28.62 38.98 34.26 37.755 45.155 37.755C56.05 37.755 61.695 38.98 62.24 39.35C66.48 43.885 70.395 52.7 70.395 52.7C68.49 52.42 66.58 52.245 64.66 52.15C64.66 52.14 64.665 52.135 64.67 52.125C64.71 51.825 64.505 51.55 64.205 51.51L48.7 49.32C48.4 49.28 48.125 49.485 48.085 49.785C48.045 50.085 48.25 50.36 48.55 50.4L60.36 52.07H44.125C44.135 51.795 43.945 51.55 43.665 51.51L28.16 49.32C27.86 49.28 27.585 49.485 27.545 49.785C27.505 50.085 27.71 50.36 28.01 50.4L39.82 52.07H28.615C25.705 52.07 22.8 52.28 19.92 52.7C19.92 52.7 23.835 43.885 28.075 39.35H28.07ZM35.15 64.96C34.85 64.96 34.605 64.715 34.605 64.415C34.605 64.115 34.85 63.87 35.15 63.87H55.345C55.645 63.87 55.89 64.115 55.89 64.415C55.89 64.715 55.645 64.96 55.345 64.96H35.15ZM55.175 66.885C55.175 67.185 54.93 67.43 54.63 67.43H35.865C35.565 67.43 35.32 67.185 35.32 66.885C35.32 66.585 35.565 66.34 35.865 66.34H54.63C54.93 66.34 55.175 66.585 55.175 66.885ZM34.575 62.495C34.275 62.495 34.03 62.25 34.03 61.95C34.03 61.65 34.275 61.405 34.575 61.405H55.915C56.215 61.405 56.46 61.65 56.46 61.95C56.46 62.25 56.215 62.495 55.915 62.495H34.575ZM17.63 62.85C17.63 61.725 18.54 60.805 19.655 60.805H27.995C29.11 60.805 30.02 61.72 30.02 62.85V64.76C30.02 65.885 29.11 66.805 27.995 66.805H19.655C18.54 66.805 17.63 65.89 17.63 64.76V62.85ZM14.485 70.6H31.115L33.245 70.275L58.645 70.285L60.495 70.6L75.385 70.54V71.085V71.63L60.4 71.69L58.505 71.365H33.285L31.155 71.69H14.49V70.6H14.485Z" fill="black"/>
<path d="M77.62 87.4551H75.655H67.85H65.975H24.615H22.65H14.84H12.97H0.775024V89.0001H159.225V87.4551H77.62Z" fill="black"/>
<path d="M106.45 47.185L105.406 46.6448C105.063 46.4671 104.641 46.6013 104.463 46.9446L103.235 49.3157C103.058 49.6591 103.192 50.0815 103.535 50.2592L104.579 50.7994C104.922 50.9771 105.344 50.8429 105.522 50.4996L106.75 48.1285C106.927 47.7851 106.793 47.3627 106.45 47.185Z" fill="black"/>
<path d="M104.115 52.4399C105.015 52.4399 105.745 51.6542 105.745 50.6849C105.745 49.7157 105.015 48.9299 104.115 48.9299C103.215 48.9299 102.485 49.7157 102.485 50.6849C102.485 51.6542 103.215 52.4399 104.115 52.4399Z" fill="black"/>
<path d="M102.557 49.7927L97.6679 52.6152C96.9098 53.0529 96.6501 54.0223 97.0878 54.7804L97.0903 54.7847C97.528 55.5428 98.4973 55.8025 99.2554 55.3648L104.144 52.5423C104.902 52.1047 105.162 51.1353 104.724 50.3772L104.722 50.3729C104.284 49.6148 103.315 49.355 102.557 49.7927Z" fill="black"/>
</g>
<defs>
<clipPath id="clip0_2475_21758">
<rect width="158.45" height="88.54" fill="white" transform="translate(0.775024 0.459961)"/>
</clipPath>
</defs>
</svg>
