<svg width="83" height="67" viewBox="0 0 83 67" fill="none" xmlns="http://www.w3.org/2000/svg">
<path d="M82.9333 5.8501H0V66.6501H82.9333V5.8501Z" fill="#828282"/>
<path d="M81.025 5.8999H1.1333V8.06657H81.025V5.8999Z" fill="#6D6D6D"/>
<path d="M81.025 8.9834H1.1333V11.1501H81.025V8.9834Z" fill="#6D6D6D"/>
<path d="M81.025 12.0669H1.1333V14.2336H81.025V12.0669Z" fill="#6D6D6D"/>
<path d="M81.025 15.1499H1.1333V17.3166H81.025V15.1499Z" fill="#6D6D6D"/>
<path d="M81.025 18.2334H1.1333V20.4001H81.025V18.2334Z" fill="#6D6D6D"/>
<path d="M81.025 21.3169H1.1333V23.4752H81.025V21.3169Z" fill="#6D6D6D"/>
<path d="M81.025 24.4084H1.1333V26.5751H81.025V24.4084Z" fill="#6D6D6D"/>
<path d="M81.025 27.4917H1.1333V29.6584H81.025V27.4917Z" fill="#6D6D6D"/>
<path d="M81.025 30.5752H1.1333V32.7419H81.025V30.5752Z" fill="#6D6D6D"/>
<path d="M81.025 33.6584H1.1333V35.8251H81.025V33.6584Z" fill="#6D6D6D"/>
<path d="M81.025 36.7417H1.1333V38.9084H81.025V36.7417Z" fill="#6D6D6D"/>
<path d="M81.025 39.8252H1.1333V41.9919H81.025V39.8252Z" fill="#6D6D6D"/>
<path d="M81.025 42.9084H1.1333V45.0751H81.025V42.9084Z" fill="#6D6D6D"/>
<path d="M81.025 45.9917H1.1333V48.1584H81.025V45.9917Z" fill="#6D6D6D"/>
<path d="M81.025 49.0752H1.1333V51.2419H81.025V49.0752Z" fill="#6D6D6D"/>
<path d="M81.025 52.1667H1.1333V54.3334H81.025V52.1667Z" fill="#6D6D6D"/>
<path d="M81.025 55.25H1.1333V57.4167H81.025V55.25Z" fill="#6D6D6D"/>
<path d="M81.025 58.3335H1.1333V60.5002H81.025V58.3335Z" fill="#6D6D6D"/>
<path d="M81.025 61.4167H1.1333V63.5834H81.025V61.4167Z" fill="#6D6D6D"/>
<path d="M81.025 64.5H1.1333V66.7H81.025V64.5Z" fill="#6D6D6D"/>
<path d="M73.5419 14.6001H9.7002V66.6418H73.5419V14.6001Z" fill="#CACACA"/>
<path d="M44.1832 8.0083H39.5332V11.1833H44.1832V8.0083Z" fill="white"/>
<path d="M22.3169 57.7251H27.8419V65.8251C27.8419 65.9418 27.7503 66.0418 27.6253 66.0418H22.5253C22.4086 66.0418 22.3086 65.9501 22.3086 65.8251V57.7251H22.3169Z" fill="black"/>
<path d="M60.5833 66.0334H55.4833C55.3666 66.0334 55.2666 65.9418 55.2666 65.8251V57.7251H60.7916V65.8251C60.7916 65.9418 60.6999 66.0418 60.5833 66.0334Z" fill="black"/>
<path d="M26.3165 42.8249C26.3165 42.8249 24.4415 42.1666 23.5832 40.8999C22.7249 39.6333 20.7165 40.6249 20.7665 42.4999C20.8165 44.2499 21.8249 45.1583 23.5165 44.8333C25.2082 44.5083 25.6832 44.3416 25.6832 44.3416L26.3165 42.8249Z" fill="black"/>
<path d="M56.7998 42.8249C56.7998 42.8249 58.6748 42.1666 59.5331 40.8999C60.3915 39.6333 62.3998 40.6249 62.3498 42.4999C62.2998 44.2499 61.2915 45.1583 59.5998 44.8333C57.9081 44.5083 57.4331 44.3416 57.4331 44.3416L56.7998 42.8249Z" fill="black"/>
<path d="M58.8164 46.45C57.7497 45.7916 56.2331 41.6833 55.3164 38.1333C54.3997 34.5833 51.1081 34.8916 51.1081 34.8916L41.8331 34.8833H41.2747L31.9997 34.8916C31.9997 34.8916 28.7081 34.5833 27.7914 38.1333C26.8747 41.6833 25.3581 45.7833 24.2914 46.45C23.2247 47.1166 22.3164 48.275 22.3164 54C22.3164 62.925 22.3164 62.925 24.1914 62.925H58.9164C60.7914 62.925 60.7914 62.925 60.7914 54C60.7997 48.275 59.8831 47.1083 58.8164 46.45Z" fill="#A3A3A3"/>
<path d="M55.7251 47.5C53.6251 47.5 51.9251 49.2 51.9251 51.3C51.9251 51.3917 51.9335 51.4833 51.9418 51.5667H31.1751C31.1835 51.475 31.1918 51.3833 31.1918 51.3C31.1918 49.2 29.4918 47.5 27.3918 47.5C25.2918 47.5 23.5918 49.2 23.5918 51.3C23.5918 53.4 25.2918 55.1 27.3918 55.1C28.0251 55.1 28.6418 54.9417 29.2001 54.6417H53.9251C55.7751 55.6417 58.0751 54.95 59.0751 53.1C60.0751 51.25 59.3835 48.95 57.5335 47.95C56.9751 47.6583 56.3585 47.5 55.7251 47.5Z" fill="#727272"/>
<path d="M27.3919 53.6167C28.6713 53.6167 29.7085 52.5795 29.7085 51.3001C29.7085 50.0206 28.6713 48.9834 27.3919 48.9834C26.1124 48.9834 25.0752 50.0206 25.0752 51.3001C25.0752 52.5795 26.1124 53.6167 27.3919 53.6167Z" fill="#A2A2A2"/>
<path d="M55.7249 53.6167C57.0043 53.6167 58.0415 52.5795 58.0415 51.3001C58.0415 50.0206 57.0043 48.9834 55.7249 48.9834C54.4454 48.9834 53.4082 50.0206 53.4082 51.3001C53.4082 52.5795 54.4454 53.6167 55.7249 53.6167Z" fill="#A2A2A2"/>
<path d="M52.408 58.2251H30.708C30.383 58.2251 30.1247 58.4918 30.133 58.8168C30.133 59.0001 30.2247 59.1751 30.3747 59.2834L32.533 60.7918C32.633 60.8584 32.7497 60.9001 32.8663 60.9001H50.258C50.3747 60.9001 50.4913 60.8668 50.5913 60.7918L52.7497 59.2834C53.008 59.0918 53.0747 58.7334 52.883 58.4668C52.7747 58.3251 52.5997 58.2334 52.408 58.2251Z" fill="#727272"/>
<path d="M52.7251 39.025C52.5251 37.95 51.5917 37.175 50.5001 37.175H32.6167C31.5251 37.175 30.5917 37.95 30.3917 39.025L29.1084 45.9417H54.0001L52.7251 39.025Z" fill="#727272"/>
<path d="M52.0581 45.9419H40.5664V48.1086H52.0581V45.9419Z" fill="#A3A3A3"/>
<path d="M74.9916 66.6418H73.4333V14.5334H9.69993V66.6418H8.1416V12.9751H74.9916V66.6418Z" fill="#828282"/>
<path d="M53.775 10.1667C53.775 15.7833 48.3417 20.3333 41.6334 20.3333C34.925 20.3333 29.4917 15.7833 29.4917 10.1667C29.4917 4.55 41.6334 0 41.6334 0C41.6334 0 53.775 4.55833 53.775 10.1667Z" fill="url(#paint0_radial_647_8579)"/>
<path d="M39.2333 28.925C37.9083 28.9 36.8499 27.8 36.8749 26.475C36.8999 25.1834 37.9416 24.1417 39.2333 24.1167C39.5083 24.1167 39.7749 24.1667 40.0249 24.25C41.2749 24.6917 41.9416 26.0667 41.4999 27.3167C41.1666 28.275 40.2499 28.925 39.2333 28.925ZM39.2333 24.65C38.2083 24.6584 37.3749 25.4917 37.3833 26.5167C37.3833 27.3 37.8833 28 38.6166 28.2584C39.5833 28.6 40.6499 28.0834 40.9833 27.1167C41.3249 26.15 40.8083 25.0834 39.8416 24.75C39.6499 24.6834 39.4416 24.65 39.2333 24.65Z" fill="#0ECC6D"/>
<path d="M38.3336 26.1249C38.1836 26.1249 38.0586 25.9999 38.0586 25.8499C38.0586 25.7999 38.0753 25.7416 38.1086 25.6999C38.3753 25.2999 38.8253 25.0749 39.3086 25.0832C39.4586 25.0916 39.5753 25.2249 39.5586 25.3749C39.5503 25.5166 39.4336 25.6249 39.2919 25.6249C39.0003 25.6166 38.7253 25.7582 38.5669 25.9999C38.5086 26.0749 38.4253 26.1249 38.3336 26.1249Z" fill="#0ECC6D"/>
<path d="M29.625 36.1C29.5917 36.1 29.5667 36.1 29.5334 36.0917C29.3584 36.0583 29.25 35.8917 29.2834 35.725C29.2834 35.7167 29.2834 35.7167 29.2834 35.7083C29.6834 34.3167 30.8667 33.1833 32.3917 32.7417C32.575 32.6833 32.7667 32.775 32.8334 32.95C32.8834 33.1167 32.7917 33.2917 32.625 33.3417C32.6167 33.3417 32.6084 33.3417 32.6 33.35C31.3084 33.7167 30.3 34.6833 29.9667 35.8667C29.925 36.0083 29.7834 36.1083 29.625 36.1Z" fill="#0ECC6D"/>
<path d="M28.2253 38.1585C28.0836 37.7085 28.0169 37.2501 28.0086 36.7751C28.0086 33.9168 30.5753 31.6001 33.7419 31.6001C36.0419 31.6001 38.0336 32.8335 38.9419 34.6168H39.7086C38.7586 32.4751 36.4419 30.9668 33.7419 30.9668C30.1919 30.9668 27.3086 33.5751 27.3086 36.7835C27.3086 37.4918 27.4586 38.2001 27.7336 38.8501C27.8919 38.6085 28.0586 38.3751 28.2253 38.1585Z" fill="#0ECC6D"/>
<path d="M40.0665 30.4084C39.1999 30.4834 38.4332 30.9917 38.0332 31.7584C38.1915 31.85 38.3332 31.95 38.4832 32.0667C38.4999 32.05 38.5082 32.0334 38.5165 32.0167C38.8332 31.4167 39.4332 31.0167 40.1082 30.9584C40.2582 30.95 40.3749 30.8167 40.3582 30.6667C40.3415 30.5167 40.2165 30.4 40.0665 30.4084Z" fill="#0ECC6D"/>
<path d="M43.0831 30.825C42.0915 29.225 39.9915 28.7416 38.3915 29.7333C37.7915 30.1083 37.3248 30.6583 37.0498 31.3C37.2248 31.3583 37.3915 31.425 37.5581 31.5C37.9998 30.4416 39.0415 29.75 40.1915 29.7583C40.4081 29.7583 40.6248 29.7833 40.8415 29.8333C42.3831 30.1916 43.3415 31.725 42.9831 33.2666C42.9081 33.5916 42.7831 33.9 42.5998 34.175C42.8081 34.175 43.0165 34.1916 43.2165 34.2C43.3498 33.9416 43.4498 33.675 43.5165 33.3916C43.7165 32.5166 43.5581 31.5916 43.0831 30.825Z" fill="#0ECC6D"/>
<path d="M31.6168 29.0667C31.5751 29.0667 31.5251 29.0584 31.4918 29.0334C31.3584 28.9667 31.3084 28.8 31.3751 28.6667C31.7668 27.925 32.5168 27.4334 33.3584 27.3584C33.5084 27.35 33.6418 27.4584 33.6501 27.6084C33.6584 27.7584 33.5501 27.8917 33.4001 27.9C32.7501 27.95 32.1668 28.3334 31.8584 28.9167C31.8084 29.0084 31.7168 29.0667 31.6168 29.0667Z" fill="#0ECC6D"/>
<path d="M33.5666 26.7833C35.3666 26.7833 36.8249 28.2417 36.8333 30.0417C36.8333 30.2917 36.8083 30.5417 36.7499 30.7833C36.7166 30.9167 36.6749 31.05 36.6249 31.175C36.7999 31.2167 36.9749 31.2667 37.1499 31.3333C37.1999 31.1917 37.2416 31.05 37.2749 30.9083C37.7583 28.8583 36.4833 26.8167 34.4416 26.3333C32.3916 25.85 30.3499 27.125 29.8666 29.1667C29.7666 29.6 29.7416 30.0417 29.7916 30.4833C29.8749 30.4833 29.9583 30.475 30.0416 30.475C30.1416 30.475 30.2416 30.4833 30.3416 30.4833C30.0916 28.7 31.3333 27.0583 33.1166 26.8083C33.2583 26.8 33.4083 26.7833 33.5666 26.7833Z" fill="#0ECC6D"/>
<path d="M24.9249 35.625C24.9083 35.625 24.8916 35.625 24.8749 35.625C24.7249 35.6 24.6249 35.4583 24.6583 35.3083C24.9333 33.8 25.9583 32.5417 27.3749 31.9667C27.5166 31.9167 27.6749 31.9917 27.7249 32.1333C27.7749 32.2667 27.7083 32.4167 27.5833 32.475C26.3416 32.9833 25.4416 34.0833 25.1999 35.4083C25.1749 35.5333 25.0583 35.625 24.9249 35.625Z" fill="#0ECC6D"/>
<path d="M32.8168 31.0334C31.7918 30.3834 30.6001 30.0334 29.3834 30.0334C29.2168 30.0334 29.0501 30.0418 28.8834 30.0501C25.3251 30.3168 22.6501 33.4168 22.9168 36.9751C23.0751 39.1584 24.3334 41.1084 26.2501 42.1584C26.4084 42.0334 26.5751 41.9168 26.7501 41.8084C23.8168 40.3668 22.6084 36.8168 24.0501 33.8834C24.2668 33.4334 24.5501 33.0168 24.8751 32.6418C25.9001 31.4501 27.3501 30.7084 28.9251 30.5918C29.0751 30.5751 29.2251 30.5751 29.3834 30.5751C30.3918 30.5751 31.3751 30.8334 32.2501 31.3334C32.4334 31.2251 32.6251 31.1251 32.8168 31.0334Z" fill="#0ECC6D"/>
<defs>
<radialGradient id="paint0_radial_647_8579" cx="0" cy="0" r="1" gradientUnits="userSpaceOnUse" gradientTransform="translate(41.6334 10.1692) scale(12.136 10.1943)">
<stop stop-color="white" stop-opacity="0.5"/>
<stop offset="0.88" stop-color="white" stop-opacity="0"/>
</radialGradient>
</defs>
</svg>
